<?xml version="1.0" encoding="UTF-8"?>
<svg width="752pt" height="752pt" version="1.1" viewBox="0 0 752 752" xmlns="http://www.w3.org/2000/svg">
 <defs>
  <clipPath id="a">
   <path d="m139.21 202h473.58v348h-473.58z"/>
  </clipPath>
 </defs>
 <g clip-path="url(#a)">
  <path d="m553.95 202.93c-0.52344-0.019531-1.043-0.007812-1.5625 0.027344-5.2031 0.33594-9.8477 3.3828-12.227 8.0234-2.375 4.6406-2.1328 10.191 0.63672 14.609 27.754 45.34 42.492 97.492 42.492 150.65 0 53.168-14.73 105.31-42.492 150.65v0.003906c-2.5859 4.4961-2.6289 10.023-0.11328 14.562 2.5156 4.5391 7.2227 7.4297 12.41 7.6211 5.1875 0.1875 10.094-2.3477 12.938-6.6914 30.609-49.996 46.883-107.52 46.883-166.14 0-58.613-16.168-116.07-46.77-166.06v-0.003906c-2.5664-4.3359-7.1602-7.0703-12.195-7.2539zm-75.094 37.289-0.003906-0.003906c-3.6211-0.027344-7.1289 1.2695-9.8594 3.6523-2.7305 2.3867-4.4883 5.6875-4.9453 9.2812s0.41797 7.2305 2.4648 10.223c22.051 33.539 33.875 72.734 33.875 112.88 0 40.141-11.824 79.422-33.875 112.96v-0.003906c-2.3945 3.2695-3.3438 7.3789-2.625 11.363 0.71875 3.9883 3.0391 7.5078 6.4219 9.7383 3.3789 2.2266 7.5273 2.9727 11.477 2.0625 3.9453-0.91016 7.3477-3.4023 9.4102-6.8906 25.23-38.367 38.676-83.316 38.676-129.23s-13.332-90.781-38.559-129.15l-0.003906 0.003906c-2.7031-4.2734-7.4023-6.8672-12.457-6.8828zm-73.016 36.129c-0.50391-0.015625-1.0039-0.007812-1.5039 0.027344-3.5977 0.25391-6.9805 1.8125-9.5078 4.3828-2.5312 2.5664-4.0352 5.9727-4.2344 9.5742-0.19531 3.5977 0.92969 7.1484 3.1602 9.9766 16.629 21.844 25.551 48.48 25.551 75.934 0 27.461-8.918 54.172-25.551 76.02v0.003907c-2.707 3.0781-4.0195 7.1484-3.6133 11.23 0.40234 4.0859 2.4844 7.8164 5.7461 10.309 3.2617 2.4883 7.4102 3.5156 11.457 2.8281s7.625-3.0195 9.8828-6.4492c20.559-27 31.68-60.008 31.68-93.941 0-33.926-11.133-66.859-31.68-93.855v0.003907c-2.6719-3.6484-6.8672-5.875-11.387-6.043zm-105.5 32.055c-32.23 0-59.312 22.832-66.105 53.098l-79.953 0.003906c-0.47266-0.023438-0.94531-0.023438-1.418 0-5.2031 0.36328-9.8281 3.4375-12.184 8.0938-2.3555 4.6523-2.0898 10.203 0.69922 14.609 2.7891 4.4102 7.6875 7.0273 12.902 6.8945h79.98c6.8438 30.195 33.898 52.984 66.078 52.984 37.297 0 67.84-30.543 67.84-67.84 0-37.297-30.543-67.84-67.84-67.84z"/>
 </g>
</svg>
