<?xml version="1.0" encoding="UTF-8"?>
<svg width="752pt" height="752pt" version="1.1" viewBox="0 0 752 752" xmlns="http://www.w3.org/2000/svg">
 <g>
  <path d="m376 449.41c-19.434-0.15625-38.012-8.0117-51.66-21.848-13.648-13.832-21.254-32.516-21.152-51.949 0.10547-19.434 7.9141-38.031 21.711-51.719 13.797-13.688 32.457-21.344 51.891-21.293 19.434 0.054688 38.055 7.8086 51.777 21.57 13.723 13.758 21.43 32.398 21.434 51.832-0.15625 19.523-8.0234 38.195-21.883 51.941-13.859 13.75-32.594 21.465-52.117 21.465zm0-132.01c-15.508 0.15625-30.32 6.457-41.195 17.512-10.871 11.059-16.918 25.977-16.816 41.484 0.10547 15.512 6.3516 30.344 17.375 41.258 11.02 10.91 25.918 17.008 41.426 16.957 15.508-0.054688 30.363-6.25 41.312-17.234 10.949-10.984 17.098-25.859 17.098-41.371-0.15625-15.598-6.4609-30.5-17.547-41.477-11.086-10.973-26.055-17.129-41.652-17.129z"/>
  <path d="m526.88 524c-7.7305-0.03125-15.141-3.0859-20.648-8.5117l-0.59375-0.59375 0.003906 0.003906c-5.0625-5.0039-8.0898-11.707-8.5-18.812-0.41016-7.1055 1.8281-14.113 6.2812-19.668 22.918-28.445 35.414-63.879 35.414-100.41 0-36.531-12.496-71.965-35.414-100.41-4.4766-5.5586-6.7266-12.578-6.3164-19.703 0.41016-7.1211 3.4531-13.84 8.5352-18.848l0.59375-0.59375h-0.003906c5.9531-5.7891 14.059-8.8125 22.348-8.332 8.2891 0.47656 15.992 4.4141 21.238 10.848 31.129 38.84 48.09 87.125 48.09 136.89 0 49.773-16.961 98.059-48.09 136.89-5.1875 6.6055-12.934 10.691-21.312 11.25zm0-281.19c-3.832-0.023438-7.5117 1.4961-10.215 4.2148l-0.59375 0.59375h0.003906c-5.1211 5.0312-5.5977 13.121-1.1094 18.719 25.02 31.074 38.664 69.77 38.664 109.66s-13.645 78.59-38.664 109.66c-4.4883 5.6016-4.0117 13.691 1.1094 18.723l0.59375 0.59375-0.003906-0.003907c2.8984 2.9336 6.9141 4.4688 11.027 4.2188 4.125-0.24219 7.9648-2.2031 10.582-5.4023 29.062-36.223 44.902-81.277 44.902-127.72 0-46.441-15.84-91.496-44.902-127.72-2.5898-3.2539-6.4297-5.2695-10.582-5.5469z"/>
  <path d="m473.9 471.53c-7.7031-0.050781-15.082-3.1055-20.57-8.5078l-0.51953-0.51953c-4.707-4.9492-7.5586-11.371-8.0703-18.184-0.51172-6.8086 1.3438-13.59 5.2617-19.184 9.8711-14.484 15.148-31.605 15.148-49.137 0-17.527-5.2773-34.648-15.148-49.133-3.8672-5.6367-5.6641-12.441-5.0859-19.254 0.58203-6.8086 3.5-13.211 8.2656-18.113 6.2031-6.3945 14.953-9.6562 23.828-8.8789 8.6406 0.82031 16.484 5.3906 21.457 12.504 16.844 24.355 25.867 53.266 25.867 82.875 0 29.613-9.0234 58.523-25.867 82.879-4.9727 7.1133-12.816 11.684-21.457 12.504zm0-176.26c-3.6094 0.023438-7.082 1.3672-9.7734 3.7734-2.6875 2.4062-4.4023 5.7148-4.8242 9.2969-0.42188 3.5859 0.48047 7.1992 2.5391 10.164 11.555 16.949 17.738 36.984 17.738 57.496 0 20.516-6.1836 40.551-17.738 57.496-2.0234 2.75-3 6.1289-2.7539 9.5312 0.24219 3.4062 1.6914 6.6094 4.082 9.043 3.0938 3.3203 7.5391 5.0391 12.062 4.6602 4.2891-0.42188 8.1797-2.6914 10.656-6.2148 15.125-21.875 23.227-47.844 23.227-74.441 0-26.598-8.1016-52.562-23.227-74.441-2.4766-3.5234-6.3672-5.793-10.656-6.2148z"/>
  <path d="m278.1 471.53h-2.7383 0.003907c-8.6406-0.82031-16.488-5.3906-21.461-12.504-16.844-24.355-25.867-53.266-25.867-82.879 0-29.609 9.0234-58.52 25.867-82.875 4.9805-7.0898 12.82-11.645 21.449-12.453 8.625-0.8125 17.176 2.1953 23.395 8.2344l0.51953 0.51953h-0.003906c4.6797 4.9492 7.5078 11.363 8.0039 18.16 0.5 6.793-1.3594 13.551-5.2656 19.133-9.8711 14.484-15.152 31.605-15.152 49.133 0 17.531 5.2812 34.652 15.152 49.137 3.8672 5.6367 5.6641 12.438 5.082 19.25-0.57813 6.8125-3.5 13.215-8.2617 18.117-5.4414 5.6328-12.891 8.8789-20.723 9.0273zm0-176.26h-1.332c-4.2852 0.42188-8.1758 2.6914-10.652 6.2188-15.125 21.875-23.23 47.844-23.23 74.438 0 26.598 8.1055 52.566 23.23 74.441 3.2109 3.7969 8.1133 5.7266 13.051 5.1406 4.9375-0.58984 9.25-3.6172 11.477-8.0625 2.2305-4.4453 2.0781-9.7148-0.40625-14.023-11.559-16.945-17.738-36.98-17.738-57.496 0-20.512 6.1797-40.547 17.738-57.492 2.0234-2.75 3-6.1289 2.7539-9.5352-0.24219-3.4023-1.6914-6.6094-4.0859-9.0391-2.832-2.9727-6.7734-4.6328-10.875-4.5898z"/>
  <path d="m225.12 524h-1.7031c-8.3281-0.48438-16.066-4.4609-21.309-10.953-31.129-38.836-48.094-87.121-48.094-136.89 0-49.77 16.965-98.059 48.094-136.89 5.2422-6.4336 12.949-10.371 21.238-10.848 8.2852-0.48047 16.395 2.543 22.344 8.332l0.59375 0.59375c5.0625 5.0039 8.0898 11.707 8.5 18.812s-1.8281 14.113-6.2812 19.664c-22.918 28.449-35.418 63.883-35.418 100.41s12.5 71.965 35.418 100.41c4.4766 5.5586 6.7266 12.582 6.3164 19.703-0.41016 7.125-3.4531 13.844-8.5352 18.852l-0.59375 0.59375v-0.003906c-5.5352 5.2969-12.91 8.2422-20.57 8.2148zm0-281.19h-0.8125c-4.1289 0.24219-7.9648 2.1992-10.582 5.3984-29.066 36.227-44.906 81.277-44.906 127.72 0 46.445 15.84 91.496 44.906 127.72 2.5898 3.2578 6.4297 5.2695 10.582 5.5508 4.125 0.20703 8.1484-1.3242 11.098-4.2188l0.59375-0.59375v0.003907c5.1172-5.0312 5.5977-13.121 1.1094-18.723-25.02-31.074-38.664-69.77-38.664-109.66s13.645-78.59 38.664-109.66c4.4883-5.5977 4.0078-13.688-1.1094-18.719l-0.59375-0.59375c-2.6992-2.7188-6.3789-4.2383-10.211-4.2148z"/>
 </g>
</svg>
